<svg width="1280" height="720" xmlns="http://www.w3.org/2000/svg" xmlns:xlink="http://www.w3.org/1999/xlink" overflow="hidden"><g><rect x="0" y="0" width="1280" height="720" fill="#FFFFFF"/><path d="M0 258 1243.84 258 1280 378.5 1243.84 499 0 499 36.1575 378.5Z" fill="#7F7F7F" fill-rule="evenodd"/><path d="M477.5 223.156C477.5 215.614 483.614 209.5 491.156 209.5L789.844 209.5C797.386 209.5 803.5 215.614 803.5 223.156L803.5 534.844C803.5 542.386 797.386 548.5 789.844 548.5L491.156 548.5C483.614 548.5 477.5 542.386 477.5 534.844Z" stroke="#2F5597" stroke-width="3" stroke-miterlimit="8" stroke-opacity="0.698039" fill="#86B4E6" fill-rule="evenodd"/><text font-family="Lato,Lato_MSFontService,sans-serif" font-weight="400" font-size="24" transform="translate(522.083 254)">Fingerprint calculation</text><path d="M53.5001 175.837C53.5001 166.814 60.8145 159.5 69.8372 159.5L427.163 159.5C436.186 159.5 443.5 166.814 443.5 175.837L443.5 582.163C443.5 591.186 436.186 598.5 427.163 598.5L69.8372 598.5C60.8145 598.5 53.5001 591.186 53.5001 582.163Z" stroke="#2F5597" stroke-width="3" stroke-miterlimit="8" stroke-opacity="0.698039" fill="#86B4E6" fill-rule="evenodd"/><text font-family="Aptos,Aptos_MSFontService,sans-serif" font-weight="400" font-size="11" transform="translate(162.496 518)">Type of compound (shape)</text><path d="M244 264 285.667 264 285.667 268 244 268ZM283.667 260 295.667 266 283.667 272Z" fill="#333F50"/><path d="M244 367 285.667 367 285.667 371 244 371ZM283.667 363 295.667 369 283.667 375Z" fill="#333F50"/><path d="M244 470 285.667 470 285.667 474 244 474ZM283.667 466 295.667 472 283.667 478Z" fill="#333F50"/><path d="M72.5001 355.5C72.5001 311.87 108.093 276.5 152 276.5 195.907 276.5 231.5 311.87 231.5 355.5 231.5 399.131 195.907 434.5 152 434.5 108.093 434.5 72.5001 399.131 72.5001 355.5Z" stroke="#333F50" stroke-width="1.33333" stroke-miterlimit="8" stroke-opacity="0.698039" fill="#D9D9D9" fill-rule="evenodd"/><text font-family="Lato,Lato_MSFontService,sans-serif" font-weight="400" font-size="24" transform="translate(155.862 199)">Dataset summary</text><text font-family="Lato,Lato_MSFontService,sans-serif" font-weight="400" font-size="19" transform="translate(250.818 259)">Min</text><text font-family="Lato,Lato_MSFontService,sans-serif" font-weight="400" font-size="19" transform="translate(243.485 361)">Mean</text><text font-family="Lato,Lato_MSFontService,sans-serif" font-weight="400" font-size="19" transform="translate(248.902 463)">Max</text><path d="M94.5001 382.723 113 370.5 131.5 382.723 124.434 402.5 101.566 402.5Z" stroke="#172C51" stroke-width="1.33333" stroke-miterlimit="8" fill="#DE0000" fill-rule="evenodd"/><path d="M178.5 373.105 197 360.5 215.5 373.105 208.434 393.5 185.566 393.5Z" stroke="#172C51" stroke-width="1.33333" stroke-miterlimit="8" fill="#DE0000" fill-rule="evenodd"/><path d="M138.5 399.723 157 387.5 175.5 399.723 168.434 419.5 145.566 419.5Z" stroke="#172C51" stroke-width="1.33333" stroke-miterlimit="8" fill="#DE0000" fill-rule="evenodd"/><path d="M180.5 327.105 199 314.5 217.5 327.105 210.434 347.5 187.566 347.5Z" stroke="#172C51" stroke-width="1.33333" stroke-miterlimit="8" fill="#FFD966" fill-rule="evenodd"/><path d="M85.5001 332.049C94.6399 332.049 102.049 324.64 102.049 315.5L110.951 315.5C110.951 324.64 118.36 332.049 127.5 332.049L127.5 339.951C118.36 339.951 110.951 347.36 110.951 356.5L102.049 356.5C102.049 347.36 94.6399 339.951 85.5001 339.951Z" stroke="#172C51" stroke-width="1.33333" stroke-miterlimit="8" fill="#FFD966" fill-rule="evenodd"/><text font-family="Cambria,Cambria_MSFontService,sans-serif" font-weight="400" font-size="14" transform="translate(186.287 339)">0.55</text><text font-family="Cambria,Cambria_MSFontService,sans-serif" font-weight="400" font-size="14" transform="translate(183.435 384)">1.55</text><text font-family="Cambria,Cambria_MSFontService,sans-serif" font-weight="400" font-size="14" transform="translate(144.053 409)">1.05</text><text font-family="Cambria,Cambria_MSFontService,sans-serif" font-weight="400" font-size="14" transform="translate(98.7731 393)">1.75</text><text font-family="Cambria,Cambria_MSFontService,sans-serif" font-weight="400" font-size="14" transform="translate(93.585 341)">2.90</text><path d="M132.5 310.049C141.64 310.049 149.049 302.64 149.049 293.5L156.951 293.5C156.951 302.64 164.36 310.049 173.5 310.049L173.5 317.951C164.36 317.951 156.951 325.36 156.951 334.5L149.049 334.5C149.049 325.36 141.64 317.951 132.5 317.951Z" stroke="#172C51" stroke-width="1.33333" stroke-miterlimit="8" fill="#FFD966" fill-rule="evenodd"/><text font-family="Cambria,Cambria_MSFontService,sans-serif" font-weight="400" font-size="14" transform="translate(140.176 318)">3.40</text><path d="M313.5 266C313.5 239.214 338.796 217.5 370 217.5 401.204 217.5 426.5 239.214 426.5 266 426.5 292.786 401.204 314.5 370 314.5 338.796 314.5 313.5 292.786 313.5 266Z" stroke="#333F50" stroke-width="1.33333" stroke-miterlimit="8" stroke-opacity="0.698039" fill="#D9D9D9" fill-rule="evenodd"/><path d="M369.5 283.105 388 270.5 406.5 283.105 399.434 303.5 376.566 303.5Z" stroke="#172C51" stroke-width="1.33333" stroke-miterlimit="8" fill="#DE0000" fill-rule="evenodd"/><path d="M367.5 236.105 385.5 223.5 403.5 236.105 396.625 256.5 374.375 256.5Z" stroke="#172C51" stroke-width="1.33333" stroke-miterlimit="8" fill="#FFD966" fill-rule="evenodd"/><path d="M324.5 262.453C333.863 262.453 341.453 254.863 341.453 245.5L349.547 245.5C349.547 254.863 357.137 262.453 366.5 262.453L366.5 270.547C357.137 270.547 349.547 278.137 349.547 287.5L341.453 287.5C341.453 278.137 333.863 270.547 324.5 270.547Z" stroke="#172C51" stroke-width="1.33333" stroke-miterlimit="8" fill="#FFD966" fill-rule="evenodd"/><text font-family="Cambria,Cambria_MSFontService,sans-serif" font-weight="400" font-size="14" transform="translate(372.93 248)">0.55</text><text font-family="Cambria,Cambria_MSFontService,sans-serif" font-weight="400" font-size="14" transform="translate(374.807 293)">1.05</text><text font-family="Cambria,Cambria_MSFontService,sans-serif" font-weight="400" font-size="14" transform="translate(332.797 271)">2.90</text><path d="M313.5 366C313.5 339.214 338.796 317.5 370 317.5 401.204 317.5 426.5 339.214 426.5 366 426.5 392.786 401.204 414.5 370 414.5 338.796 414.5 313.5 392.786 313.5 366Z" stroke="#333F50" stroke-width="1.33333" stroke-miterlimit="8" stroke-opacity="0.698039" fill="#D9D9D9" fill-rule="evenodd"/><path d="M369.5 382.723 388 370.5 406.5 382.723 399.434 402.5 376.566 402.5Z" stroke="#172C51" stroke-width="1.33333" stroke-miterlimit="8" fill="#DE0000" fill-rule="evenodd"/><path d="M367.5 335.723 385.5 323.5 403.5 335.723 396.625 355.5 374.375 355.5Z" stroke="#172C51" stroke-width="1.33333" stroke-miterlimit="8" fill="#FFD966" fill-rule="evenodd"/><path d="M324.5 362.453C333.863 362.453 341.453 354.863 341.453 345.5L349.547 345.5C349.547 354.863 357.137 362.453 366.5 362.453L366.5 370.547C357.137 370.547 349.547 378.137 349.547 387.5L341.453 387.5C341.453 378.137 333.863 370.547 324.5 370.547Z" stroke="#172C51" stroke-width="1.33333" stroke-miterlimit="8" fill="#FFD966" fill-rule="evenodd"/><text font-family="Cambria,Cambria_MSFontService,sans-serif" font-weight="400" font-size="14" transform="translate(372.93 348)">0.55</text><text font-family="Cambria,Cambria_MSFontService,sans-serif" font-weight="400" font-size="14" transform="translate(374.807 393)">1.45</text><text font-family="Cambria,Cambria_MSFontService,sans-serif" font-weight="400" font-size="14" transform="translate(332.797 371)">3.15</text><path d="M313.5 465.5C313.5 438.438 338.796 416.5 370 416.5 401.204 416.5 426.5 438.438 426.5 465.5 426.5 492.562 401.204 514.5 370 514.5 338.796 514.5 313.5 492.562 313.5 465.5Z" stroke="#333F50" stroke-width="1.33333" stroke-miterlimit="8" stroke-opacity="0.698039" fill="#D9D9D9" fill-rule="evenodd"/><path d="M369.5 482.723 388 470.5 406.5 482.723 399.434 502.5 376.566 502.5Z" stroke="#172C51" stroke-width="1.33333" stroke-miterlimit="8" fill="#DE0000" fill-rule="evenodd"/><path d="M367.5 435.723 385.5 423.5 403.5 435.723 396.625 455.5 374.375 455.5Z" stroke="#172C51" stroke-width="1.33333" stroke-miterlimit="8" fill="#FFD966" fill-rule="evenodd"/><path d="M324.5 462.049C333.64 462.049 341.049 454.64 341.049 445.5L349.951 445.5C349.951 454.64 357.36 462.049 366.5 462.049L366.5 469.951C357.36 469.951 349.951 477.36 349.951 486.5L341.049 486.5C341.049 477.36 333.64 469.951 324.5 469.951Z" stroke="#172C51" stroke-width="1.33333" stroke-miterlimit="8" fill="#FFD966" fill-rule="evenodd"/><text font-family="Cambria,Cambria_MSFontService,sans-serif" font-weight="400" font-size="14" transform="translate(372.93 447)">0.55</text><text font-family="Cambria,Cambria_MSFontService,sans-serif" font-weight="400" font-size="14" transform="translate(374.807 492)">1.75</text><text font-family="Cambria,Cambria_MSFontService,sans-serif" font-weight="400" font-size="14" transform="translate(332.797 471)">3.40</text><path d="M87.5001 515C87.5001 506.992 93.992 500.5 102 500.5L287 500.5C295.008 500.5 301.5 506.992 301.5 515L301.5 573C301.5 581.008 295.008 587.5 287 587.5L102 587.5C93.992 587.5 87.5001 581.008 87.5001 573Z" stroke="#172C51" stroke-width="1.33333" stroke-miterlimit="8" fill="none" fill-rule="evenodd"/><path d="M198.382 506.82 198.382 506.82 198.382 506.82Z" stroke="#849398" stroke-width="3.77953" stroke-miterlimit="8" fill="#849398" fill-rule="evenodd" fill-opacity="0.0509804"/><path d="M134.701 522.875 136.75 520.531C136.772 520.505 136.795 520.482 136.821 520.461L139.187 518.454C139.212 518.434 139.238 518.415 139.265 518.398L141.917 516.741 144.902 515.404 148.107 514.453 151.496 513.902C151.536 513.895 151.576 513.892 151.616 513.893L157.4 514.011C157.768 514.018 158.06 514.323 158.053 514.691 158.045 515.059 157.741 515.351 157.373 515.344L151.589 515.226 151.709 515.218 148.484 515.732 145.445 516.621 142.623 517.872 139.971 519.528 140.049 519.471 137.683 521.478 137.754 521.408 135.705 523.752C135.463 524.029 135.042 524.057 134.765 523.815 134.487 523.573 134.459 523.152 134.701 522.875ZM152.487 510.678 158.644 514.703 152.328 518.474C152.012 518.663 151.603 518.56 151.414 518.243 151.225 517.927 151.329 517.518 151.645 517.329L157.045 514.105 157.022 515.235 151.757 511.794C151.449 511.593 151.362 511.18 151.564 510.872 151.765 510.563 152.178 510.477 152.487 510.678Z" fill="#C55A11"/><path d="M96.5001 540.682C107.646 540.682 116.682 531.646 116.682 520.5L126.318 520.5C126.318 531.646 135.354 540.682 146.5 540.682L146.5 550.318C135.354 550.318 126.318 559.354 126.318 570.5L116.682 570.5C116.682 559.354 107.646 550.318 96.5001 550.318Z" stroke="#172C51" stroke-width="1.33333" stroke-miterlimit="8" fill="#FFD966" fill-rule="evenodd"/><text font-family="Cambria,Cambria_MSFontService,sans-serif" font-weight="400" font-size="14" transform="translate(107.798 550)">3.40</text><path d="M25.5135-0.664763 28.6174-0.429702C28.6506-0.427191 28.6834-0.422219 28.7158-0.414797L31.7402 0.277508C31.7715 0.284689 31.8024 0.294154 31.8324 0.305787L34.7474 1.43602 37.6072 3.02428 40.2885 5.02056 42.7614 7.4034C42.7902 7.43123 42.8164 7.4616 42.8398 7.49414L46.2119 12.1947C46.4265 12.4939 46.358 12.9104 46.0588 13.125 45.7596 13.3396 45.3431 13.2711 45.1285 12.9719L41.7564 8.27134 41.8348 8.36208 39.4904 6.08864 36.9575 4.18863 34.2654 2.67918 31.3504 1.54895 31.4426 1.57722 28.4183 0.884918 28.5167 0.899824 25.4128 0.664763C25.0456 0.63696 24.7705 0.316796 24.7984-0.0503424 24.8262-0.417481 25.1463-0.692566 25.5135-0.664763ZM45.9352 6.26433 46.4034 13.6054 39.5995 10.8094C39.259 10.6695 39.0963 10.2799 39.2363 9.93939 39.3762 9.59884 39.7658 9.43621 40.1063 9.57616L45.9236 11.9667 45.0049 12.6258 44.6045 6.3492C44.5811 5.98176 44.86 5.66489 45.2274 5.64145 45.5949 5.61801 45.9117 5.89688 45.9352 6.26433Z" fill="#C55A11" transform="matrix(0.599266 0.80055 0.80055 -0.599266 106.008 544.281)"/><path d="M0.000751196-0.666666 28.097-0.635008C28.4652-0.634593 28.7633-0.33578 28.7629 0.0324099 28.7625 0.400599 28.4637 0.69874 28.0955 0.698325L-0.000751196 0.666666C-0.368941 0.666251-0.667081 0.367438-0.666666-0.000751196-0.666251-0.368941-0.367438-0.667081 0.000751196-0.666666ZM23.1206-3.87262 29.354 0.0330759 23.1118 3.92471C22.7993 4.1195 22.3881 4.02412 22.1934 3.71168 21.9986 3.39923 22.0939 2.98804 22.4064 2.79325L27.7435-0.534071 27.7422 0.596592 22.4126-2.74275C22.1006-2.93824 22.0062-3.34965 22.2017-3.66165 22.3972-3.97366 22.8086-4.06811 23.1206-3.87262Z" fill="#C55A11" transform="matrix(1 0 0 -1 138.5 545.533)"/><text font-family="Aptos,Aptos_MSFontService,sans-serif" font-weight="400" font-size="11" transform="translate(172.019 548)">Ionization efficiency</text><text font-family="Aptos,Aptos_MSFontService,sans-serif" font-weight="400" font-size="11" transform="translate(145.947 576)">pH (colour)</text><path d="M835.5 175.46C835.5 166.646 842.646 159.5 851.46 159.5L1200.54 159.5C1209.35 159.5 1216.5 166.646 1216.5 175.46L1216.5 582.54C1216.5 591.355 1209.35 598.5 1200.54 598.5L851.46 598.5C842.646 598.5 835.5 591.355 835.5 582.54Z" stroke="#2F5597" stroke-width="3" stroke-miterlimit="8" stroke-opacity="0.698039" fill="#86B4E6" fill-rule="evenodd"/><text font-family="Lato,Lato_MSFontService,sans-serif" font-weight="400" font-size="24" transform="translate(971.623 195)">Prediction</text><path d="M498 464.393C509.815 464.393 519.393 454.815 519.393 443L529.607 443C529.607 454.815 539.185 464.393 551 464.393L551 474.607C539.185 474.607 529.607 484.185 529.607 496L519.393 496C519.393 484.185 509.815 474.607 498 474.607Z" stroke="#172C51" stroke-width="2" stroke-miterlimit="8" fill="none" fill-rule="evenodd"/><path d="M666.442 320.735 678.657 320.735 678.657 349.535 666.442 349.535Z" fill="#FFFFFF" fill-rule="evenodd"/><path d="M678.657 320.735 690.872 320.735 690.872 349.535 678.657 349.535Z" fill="#C9C9C9" fill-rule="evenodd"/><path d="M690.872 320.735 703.087 320.735 703.087 349.535 690.872 349.535Z" fill="#AFABAB" fill-rule="evenodd"/><path d="M703.087 320.735 715.302 320.735 715.302 349.535 703.087 349.535Z" fill="#AFABAB" fill-rule="evenodd"/><path d="M715.302 320.735 727.517 320.735 727.517 349.535 715.302 349.535Z" fill="#FFFFFF" fill-rule="evenodd"/><path d="M727.517 320.735 739.731 320.735 739.731 349.535 727.517 349.535Z" fill="#767171" fill-rule="evenodd"/><path d="M739.731 320.735 751.946 320.735 751.946 349.535 739.731 349.535Z" fill="#C9C9C9" fill-rule="evenodd"/><path d="M751.946 320.735 764.161 320.735 764.161 349.535 751.946 349.535Z" fill="#767171" fill-rule="evenodd"/><path d="M764.161 320.735 776.376 320.735 776.376 349.535 764.161 349.535Z" fill="#FFFFFF" fill-rule="evenodd"/><path d="M776.376 320.735 788.591 320.735 788.591 349.535 776.376 349.535Z" fill="#C9C9C9" fill-rule="evenodd"/><path d="M678.657 320.068 678.657 350.201" stroke="#000000" stroke-width="1.33333" stroke-linejoin="round" stroke-miterlimit="10" fill="none" fill-rule="evenodd"/><path d="M690.872 320.068 690.872 350.201" stroke="#000000" stroke-width="1.33333" stroke-linejoin="round" stroke-miterlimit="10" fill="none" fill-rule="evenodd"/><path d="M703.087 320.068 703.087 350.201" stroke="#000000" stroke-width="1.33333" stroke-linejoin="round" stroke-miterlimit="10" fill="none" fill-rule="evenodd"/><path d="M715.302 320.068 715.302 350.201" stroke="#000000" stroke-width="1.33333" stroke-linejoin="round" stroke-miterlimit="10" fill="none" fill-rule="evenodd"/><path d="M727.517 320.068 727.517 350.201" stroke="#000000" stroke-width="1.33333" stroke-linejoin="round" stroke-miterlimit="10" fill="none" fill-rule="evenodd"/><path d="M739.731 320.068 739.731 350.201" stroke="#000000" stroke-width="1.33333" stroke-linejoin="round" stroke-miterlimit="10" fill="none" fill-rule="evenodd"/><path d="M751.946 320.068 751.946 350.201" stroke="#000000" stroke-width="1.33333" stroke-linejoin="round" stroke-miterlimit="10" fill="none" fill-rule="evenodd"/><path d="M764.161 320.068 764.161 350.201" stroke="#000000" stroke-width="1.33333" stroke-linejoin="round" stroke-miterlimit="10" fill="none" fill-rule="evenodd"/><path d="M776.376 320.068 776.376 350.201" stroke="#000000" stroke-width="1.33333" stroke-linejoin="round" stroke-miterlimit="10" fill="none" fill-rule="evenodd"/><path d="M666.442 320.068 666.442 350.201" stroke="#000000" stroke-width="1.33333" stroke-linejoin="round" stroke-miterlimit="10" fill="none" fill-rule="evenodd"/><path d="M788.591 320.068 788.591 350.201" stroke="#000000" stroke-width="1.33333" stroke-linejoin="round" stroke-miterlimit="10" fill="none" fill-rule="evenodd"/><path d="M665.775 320.735 789.258 320.735" stroke="#000000" stroke-width="1.33333" stroke-linejoin="round" stroke-miterlimit="10" fill="none" fill-rule="evenodd"/><path d="M665.775 349.535 789.258 349.535" stroke="#000000" stroke-width="1.33333" stroke-linejoin="round" stroke-miterlimit="10" fill="none" fill-rule="evenodd"/><path d="M498 331.244 524.5 311 551 331.244 540.878 364 508.122 364Z" stroke="#172C51" stroke-width="2" stroke-miterlimit="8" fill="none" fill-rule="evenodd"/><path d="M666.442 450.073 678.657 450.073 678.657 478.873 666.442 478.873Z" fill="#767171" fill-rule="evenodd"/><path d="M678.657 450.073 690.872 450.073 690.872 478.873 678.657 478.873Z" fill="#3B3838" fill-rule="evenodd"/><path d="M690.872 450.073 703.087 450.073 703.087 478.873 690.872 478.873Z" fill="#FFFFFF" fill-rule="evenodd"/><path d="M703.087 450.073 715.302 450.073 715.302 478.873 703.087 478.873Z" fill="#AFABAB" fill-rule="evenodd"/><path d="M715.302 450.073 727.517 450.073 727.517 478.873 715.302 478.873Z" fill="#FFFFFF" fill-rule="evenodd"/><path d="M727.517 450.073 739.731 450.073 739.731 478.873 727.517 478.873Z" fill="#FFFFFF" fill-rule="evenodd"/><path d="M739.731 450.073 751.946 450.073 751.946 478.873 739.731 478.873Z" fill="#C9C9C9" fill-rule="evenodd"/><path d="M751.946 450.073 764.161 450.073 764.161 478.873 751.946 478.873Z" fill="#F2F2F2" fill-rule="evenodd"/><path d="M764.161 450.073 776.376 450.073 776.376 478.873 764.161 478.873Z" fill="#AFABAB" fill-rule="evenodd"/><path d="M776.376 450.073 788.591 450.073 788.591 478.873 776.376 478.873Z" fill="#767171" fill-rule="evenodd"/><path d="M678.657 449.406 678.657 479.539" stroke="#000000" stroke-width="1.33333" stroke-linejoin="round" stroke-miterlimit="10" fill="none" fill-rule="evenodd"/><path d="M690.872 449.406 690.872 479.539" stroke="#000000" stroke-width="1.33333" stroke-linejoin="round" stroke-miterlimit="10" fill="none" fill-rule="evenodd"/><path d="M703.087 449.406 703.087 479.539" stroke="#000000" stroke-width="1.33333" stroke-linejoin="round" stroke-miterlimit="10" fill="none" fill-rule="evenodd"/><path d="M715.302 449.406 715.302 479.539" stroke="#000000" stroke-width="1.33333" stroke-linejoin="round" stroke-miterlimit="10" fill="none" fill-rule="evenodd"/><path d="M727.517 449.406 727.517 479.539" stroke="#000000" stroke-width="1.33333" stroke-linejoin="round" stroke-miterlimit="10" fill="none" fill-rule="evenodd"/><path d="M739.731 449.406 739.731 479.539" stroke="#000000" stroke-width="1.33333" stroke-linejoin="round" stroke-miterlimit="10" fill="none" fill-rule="evenodd"/><path d="M751.946 449.406 751.946 479.539" stroke="#000000" stroke-width="1.33333" stroke-linejoin="round" stroke-miterlimit="10" fill="none" fill-rule="evenodd"/><path d="M764.161 449.406 764.161 479.539" stroke="#000000" stroke-width="1.33333" stroke-linejoin="round" stroke-miterlimit="10" fill="none" fill-rule="evenodd"/><path d="M776.376 449.406 776.376 479.539" stroke="#000000" stroke-width="1.33333" stroke-linejoin="round" stroke-miterlimit="10" fill="none" fill-rule="evenodd"/><path d="M666.442 449.406 666.442 479.539" stroke="#000000" stroke-width="1.33333" stroke-linejoin="round" stroke-miterlimit="10" fill="none" fill-rule="evenodd"/><path d="M788.591 449.406 788.591 479.539" stroke="#000000" stroke-width="1.33333" stroke-linejoin="round" stroke-miterlimit="10" fill="none" fill-rule="evenodd"/><path d="M665.775 450.073 789.258 450.073" stroke="#000000" stroke-width="1.33333" stroke-linejoin="round" stroke-miterlimit="10" fill="none" fill-rule="evenodd"/><path d="M665.775 478.873 789.258 478.873" stroke="#000000" stroke-width="1.33333" stroke-linejoin="round" stroke-miterlimit="10" fill="none" fill-rule="evenodd"/><path d="M548.4 446.694C556.556 433.182 573.426 428.038 586.082 435.205 590.051 437.452 593.287 440.762 595.475 444.809" stroke="#333F50" stroke-width="4" stroke-miterlimit="8" fill="none" fill-rule="evenodd"/><path d="M23.864-1.64684 29.8375-1.99204 35.7768-1.23759 41.3532 0.536854 46.4287 3.24262 50.8644 6.79389 54.5176 11.1057 57.2388 16.089 58.8668 21.6171 59.2961 26.2059 58.7199 28.6261 54.8287 27.6996 55.3285 25.6005 55.2828 26.25 54.9023 22.1826 54.975 22.5613 53.4622 17.4245 53.6254 17.818 51.1046 13.2016 51.334 13.536 47.9375 9.52715 48.2135 9.79558 44.0738 6.48134 44.3829 6.68492 39.6323 4.15231 39.9667 4.29328 34.7375 2.62934 35.092 2.70756 29.5166 1.99934 29.884 2.01195 24.0948 2.3465ZM63.0809 27.6862 54.336 37.861 51.4431 24.7602Z" fill="#333F50" transform="matrix(0.677776 0.735269 0.735269 -0.677776 608.032 472.14)"/><path d="M593.581 446.675 623.419 446.675 623.419 488.325 593.581 488.325 593.581 446.675ZM590 492 627 492 627 443 590 443 590 492Z" fill="#333F50" fill-rule="evenodd"/><path d="M610 452 620 452 620 455 610 455Z" fill="#333F50" fill-rule="evenodd"/><path d="M610 462 620 462 620 464 610 464Z" fill="#333F50" fill-rule="evenodd"/><path d="M610 481 620 481 620 484 610 484Z" fill="#333F50" fill-rule="evenodd"/><path d="M610 472 620 472 620 474 610 474Z" fill="#333F50" fill-rule="evenodd"/><path d="M606 450.836 604.297 449 600.284 453.328 598.703 451.623 597 453.459 600.284 457Z" fill="#333F50" fill-rule="evenodd"/><path d="M606 460.607 604.297 459 600.284 462.787 598.703 461.295 597 462.902 600.284 466Z" fill="#333F50" fill-rule="evenodd"/><path d="M606 470.607 604.297 469 600.284 472.787 598.703 471.295 597 472.902 600.284 476Z" fill="#333F50" fill-rule="evenodd"/><path d="M606 479.836 604.297 478 600.284 482.328 598.703 480.623 597 482.459 600.284 486Z" fill="#333F50" fill-rule="evenodd"/><path d="M548.4 317.63C556.556 304.117 573.426 298.973 586.082 306.14 590.051 308.388 593.287 311.698 595.475 315.745" stroke="#333F50" stroke-width="4" stroke-miterlimit="8" fill="none" fill-rule="evenodd"/><path d="M23.864-1.64684 29.8375-1.99204 35.7768-1.23759 41.3532 0.536854 46.4287 3.24262 50.8644 6.79389 54.5176 11.1057 57.2388 16.089 58.8668 21.6171 59.2961 26.2059 58.7199 28.6261 54.8287 27.6996 55.3285 25.6005 55.2828 26.25 54.9023 22.1826 54.975 22.5613 53.4622 17.4245 53.6254 17.818 51.1046 13.2016 51.334 13.536 47.9375 9.52715 48.2135 9.79558 44.0738 6.48134 44.3829 6.68492 39.6323 4.15231 39.9667 4.29328 34.7375 2.62934 35.092 2.70756 29.5166 1.99934 29.884 2.01195 24.0948 2.3465ZM63.0809 27.6862 54.336 37.861 51.4431 24.7602Z" fill="#333F50" transform="matrix(0.677776 0.735269 0.735269 -0.677776 608.032 343.076)"/><path d="M593.581 317.675 623.419 317.675 623.419 359.325 593.581 359.325 593.581 317.675ZM590 363 627 363 627 314 590 314 590 363Z" fill="#333F50" fill-rule="evenodd"/><path d="M610 323 620 323 620 326 610 326Z" fill="#333F50" fill-rule="evenodd"/><path d="M610 333 620 333 620 335 610 335Z" fill="#333F50" fill-rule="evenodd"/><path d="M610 352 620 352 620 355 610 355Z" fill="#333F50" fill-rule="evenodd"/><path d="M610 343 620 343 620 345 610 345Z" fill="#333F50" fill-rule="evenodd"/><path d="M606 321.836 604.297 320 600.284 324.328 598.703 322.623 597 324.459 600.284 328Z" fill="#333F50" fill-rule="evenodd"/><path d="M606 331.607 604.297 330 600.284 333.787 598.703 332.295 597 333.902 600.284 337Z" fill="#333F50" fill-rule="evenodd"/><path d="M606 341.607 604.297 340 600.284 343.787 598.703 342.295 597 343.902 600.284 347Z" fill="#333F50" fill-rule="evenodd"/><path d="M606 350.836 604.297 349 600.284 353.328 598.703 351.623 597 353.459 600.284 357Z" fill="#333F50" fill-rule="evenodd"/><path d="M851.5 264.668C851.5 245.245 867.245 229.5 886.668 229.5L1165.33 229.5C1184.76 229.5 1200.5 245.245 1200.5 264.668L1200.5 405.332C1200.5 424.755 1184.76 440.5 1165.33 440.5L886.668 440.5C867.245 440.5 851.5 424.755 851.5 405.332Z" stroke="#333F50" stroke-width="1.33333" stroke-miterlimit="8" stroke-opacity="0.698039" fill="none" fill-rule="evenodd"/><path d="M862.5 303.667C862.5 299.156 866.156 295.5 870.667 295.5L1053.33 295.5C1057.84 295.5 1061.5 299.156 1061.5 303.667L1061.5 336.333C1061.5 340.844 1057.84 344.5 1053.33 344.5L870.667 344.5C866.156 344.5 862.5 340.844 862.5 336.333Z" stroke="#333F50" stroke-width="1.33333" stroke-miterlimit="8" stroke-opacity="0.698039" fill="#D9D9D9" fill-rule="evenodd"/><path d="M872.359 305.316 884.574 305.316 884.574 334.116 872.359 334.116Z" fill="#FFFFFF" fill-rule="evenodd"/><path d="M884.574 305.316 896.789 305.316 896.789 334.116 884.574 334.116Z" fill="#C9C9C9" fill-rule="evenodd"/><path d="M896.789 305.316 909.004 305.316 909.004 334.116 896.789 334.116Z" fill="#AFABAB" fill-rule="evenodd"/><path d="M909.004 305.316 921.219 305.316 921.219 334.116 909.004 334.116Z" fill="#AFABAB" fill-rule="evenodd"/><path d="M921.219 305.316 933.434 305.316 933.434 334.116 921.219 334.116Z" fill="#FFFFFF" fill-rule="evenodd"/><path d="M933.434 305.316 945.649 305.316 945.649 334.116 933.434 334.116Z" fill="#767171" fill-rule="evenodd"/><path d="M945.649 305.316 957.864 305.316 957.864 334.116 945.649 334.116Z" fill="#C9C9C9" fill-rule="evenodd"/><path d="M957.864 305.316 970.079 305.316 970.079 334.116 957.864 334.116Z" fill="#767171" fill-rule="evenodd"/><path d="M970.079 305.316 982.294 305.316 982.294 334.116 970.079 334.116Z" fill="#FFFFFF" fill-rule="evenodd"/><path d="M982.294 305.316 994.509 305.316 994.509 334.116 982.294 334.116Z" fill="#C9C9C9" fill-rule="evenodd"/><path d="M884.574 304.65 884.574 334.783" stroke="#000000" stroke-width="1.33333" stroke-linejoin="round" stroke-miterlimit="10" fill="none" fill-rule="evenodd"/><path d="M896.789 304.65 896.789 334.783" stroke="#000000" stroke-width="1.33333" stroke-linejoin="round" stroke-miterlimit="10" fill="none" fill-rule="evenodd"/><path d="M909.004 304.65 909.004 334.783" stroke="#000000" stroke-width="1.33333" stroke-linejoin="round" stroke-miterlimit="10" fill="none" fill-rule="evenodd"/><path d="M921.219 304.65 921.219 334.783" stroke="#000000" stroke-width="1.33333" stroke-linejoin="round" stroke-miterlimit="10" fill="none" fill-rule="evenodd"/><path d="M933.434 304.65 933.434 334.783" stroke="#000000" stroke-width="1.33333" stroke-linejoin="round" stroke-miterlimit="10" fill="none" fill-rule="evenodd"/><path d="M945.649 304.65 945.649 334.783" stroke="#000000" stroke-width="1.33333" stroke-linejoin="round" stroke-miterlimit="10" fill="none" fill-rule="evenodd"/><path d="M957.864 304.65 957.864 334.783" stroke="#000000" stroke-width="1.33333" stroke-linejoin="round" stroke-miterlimit="10" fill="none" fill-rule="evenodd"/><path d="M970.079 304.65 970.079 334.783" stroke="#000000" stroke-width="1.33333" stroke-linejoin="round" stroke-miterlimit="10" fill="none" fill-rule="evenodd"/><path d="M982.294 304.65 982.294 334.783" stroke="#000000" stroke-width="1.33333" stroke-linejoin="round" stroke-miterlimit="10" fill="none" fill-rule="evenodd"/><path d="M872.359 304.65 872.359 334.783" stroke="#000000" stroke-width="1.33333" stroke-linejoin="round" stroke-miterlimit="10" fill="none" fill-rule="evenodd"/><path d="M994.509 304.65 994.509 334.783" stroke="#000000" stroke-width="1.33333" stroke-linejoin="round" stroke-miterlimit="10" fill="none" fill-rule="evenodd"/><path d="M871.693 305.316 995.175 305.316" stroke="#000000" stroke-width="1.33333" stroke-linejoin="round" stroke-miterlimit="10" fill="none" fill-rule="evenodd"/><path d="M871.693 334.116 995.175 334.116" stroke="#000000" stroke-width="1.33333" stroke-linejoin="round" stroke-miterlimit="10" fill="none" fill-rule="evenodd"/><text font-family="Calibri,Calibri_MSFontService,sans-serif" font-weight="400" font-size="24" transform="translate(1005.25 327)">+</text><path d="M862.5 373.834C862.5 369.231 866.231 365.5 870.833 365.5L1053.17 365.5C1057.77 365.5 1061.5 369.231 1061.5 373.834L1061.5 407.167C1061.5 411.769 1057.77 415.5 1053.17 415.5L870.833 415.5C866.231 415.5 862.5 411.769 862.5 407.167Z" stroke="#333F50" stroke-width="1.33333" stroke-miterlimit="8" stroke-opacity="0.698039" fill="#D9D9D9" fill-rule="evenodd"/><path d="M872.359 375.612 884.574 375.612 884.574 404.412 872.359 404.412Z" fill="#FFFFFF" fill-rule="evenodd"/><path d="M884.574 375.612 896.789 375.612 896.789 404.412 884.574 404.412Z" fill="#C9C9C9" fill-rule="evenodd"/><path d="M896.789 375.612 909.004 375.612 909.004 404.412 896.789 404.412Z" fill="#AFABAB" fill-rule="evenodd"/><path d="M909.004 375.612 921.219 375.612 921.219 404.412 909.004 404.412Z" fill="#AFABAB" fill-rule="evenodd"/><path d="M921.219 375.612 933.434 375.612 933.434 404.412 921.219 404.412Z" fill="#FFFFFF" fill-rule="evenodd"/><path d="M933.434 375.612 945.649 375.612 945.649 404.412 933.434 404.412Z" fill="#767171" fill-rule="evenodd"/><path d="M945.649 375.612 957.864 375.612 957.864 404.412 945.649 404.412Z" fill="#C9C9C9" fill-rule="evenodd"/><path d="M957.864 375.612 970.079 375.612 970.079 404.412 957.864 404.412Z" fill="#767171" fill-rule="evenodd"/><path d="M970.079 375.612 982.294 375.612 982.294 404.412 970.079 404.412Z" fill="#FFFFFF" fill-rule="evenodd"/><path d="M982.294 375.612 994.509 375.612 994.509 404.412 982.294 404.412Z" fill="#C9C9C9" fill-rule="evenodd"/><path d="M884.574 374.946 884.574 405.079" stroke="#000000" stroke-width="1.33333" stroke-linejoin="round" stroke-miterlimit="10" fill="none" fill-rule="evenodd"/><path d="M896.789 374.946 896.789 405.079" stroke="#000000" stroke-width="1.33333" stroke-linejoin="round" stroke-miterlimit="10" fill="none" fill-rule="evenodd"/><path d="M909.004 374.946 909.004 405.079" stroke="#000000" stroke-width="1.33333" stroke-linejoin="round" stroke-miterlimit="10" fill="none" fill-rule="evenodd"/><path d="M921.219 374.946 921.219 405.079" stroke="#000000" stroke-width="1.33333" stroke-linejoin="round" stroke-miterlimit="10" fill="none" fill-rule="evenodd"/><path d="M933.434 374.946 933.434 405.079" stroke="#000000" stroke-width="1.33333" stroke-linejoin="round" stroke-miterlimit="10" fill="none" fill-rule="evenodd"/><path d="M945.649 374.946 945.649 405.079" stroke="#000000" stroke-width="1.33333" stroke-linejoin="round" stroke-miterlimit="10" fill="none" fill-rule="evenodd"/><path d="M957.864 374.946 957.864 405.079" stroke="#000000" stroke-width="1.33333" stroke-linejoin="round" stroke-miterlimit="10" fill="none" fill-rule="evenodd"/><path d="M970.079 374.946 970.079 405.079" stroke="#000000" stroke-width="1.33333" stroke-linejoin="round" stroke-miterlimit="10" fill="none" fill-rule="evenodd"/><path d="M982.294 374.946 982.294 405.079" stroke="#000000" stroke-width="1.33333" stroke-linejoin="round" stroke-miterlimit="10" fill="none" fill-rule="evenodd"/><path d="M872.359 374.946 872.359 405.079" stroke="#000000" stroke-width="1.33333" stroke-linejoin="round" stroke-miterlimit="10" fill="none" fill-rule="evenodd"/><path d="M994.509 374.946 994.509 405.079" stroke="#000000" stroke-width="1.33333" stroke-linejoin="round" stroke-miterlimit="10" fill="none" fill-rule="evenodd"/><path d="M871.693 375.612 995.175 375.612" stroke="#000000" stroke-width="1.33333" stroke-linejoin="round" stroke-miterlimit="10" fill="none" fill-rule="evenodd"/><path d="M871.693 404.412 995.175 404.412" stroke="#000000" stroke-width="1.33333" stroke-linejoin="round" stroke-miterlimit="10" fill="none" fill-rule="evenodd"/><text font-family="Calibri,Calibri_MSFontService,sans-serif" font-weight="400" font-size="24" transform="translate(1005.25 397)">+</text><path d="M1027.94 386.818C1027.62 384.257 1029.24 381.898 1031.55 381.55 1032.49 381.409 1033.44 381.62 1034.25 382.149 1035.12 380.344 1037.13 379.658 1038.76 380.617 1039.04 380.785 1039.31 380.997 1039.54 381.248 1040.21 379.752 1041.85 379.144 1043.19 379.89 1043.57 380.097 1043.89 380.395 1044.15 380.763 1045.23 379.349 1047.15 379.174 1048.42 380.373 1048.96 380.877 1049.32 381.572 1049.45 382.34 1051.22 382.877 1052.27 384.913 1051.79 386.887 1051.75 387.052 1051.7 387.215 1051.64 387.373 1053.06 389.43 1052.71 392.377 1050.86 393.957 1050.28 394.449 1049.6 394.767 1048.88 394.881 1048.86 397.094 1047.23 398.873 1045.23 398.855 1044.57 398.849 1043.91 398.639 1043.35 398.248 1042.67 400.728 1040.32 402.13 1038.09 401.379 1037.15 401.064 1036.34 400.399 1035.8 399.496 1033.52 401.023 1030.55 400.202 1029.18 397.66 1029.16 397.628 1029.14 397.596 1029.13 397.564 1027.63 397.758 1026.28 396.575 1026.1 394.922 1026.01 394.04 1026.27 393.158 1026.82 392.511 1025.53 391.666 1025.09 389.811 1025.85 388.368 1026.29 387.536 1027.05 386.986 1027.91 386.887Z" stroke="#262626" stroke-width="0.666667" stroke-miterlimit="8" fill="#FFD966" fill-rule="evenodd"/><path d="M1028.43 392.831C1027.88 392.879 1027.33 392.737 1026.85 392.425M1029.83 397.273C1029.61 397.371 1029.37 397.436 1029.14 397.467M1035.8 399.407C1035.63 399.129 1035.49 398.832 1035.38 398.521M1043.52 397.197C1043.49 397.527 1043.44 397.853 1043.35 398.17M1046.83 391.19C1048.08 391.866 1048.87 393.279 1048.86 394.823M1051.62 387.319C1051.42 387.845 1051.11 388.311 1050.72 388.682M1049.45 382.263C1049.49 382.476 1049.5 382.691 1049.5 382.907M1043.67 381.513C1043.79 381.216 1043.95 380.939 1044.14 380.692M1039.34 381.904C1039.39 381.658 1039.46 381.421 1039.56 381.196M1034.25 382.144C1034.54 382.336 1034.82 382.566 1035.06 382.831M1028.08 387.541C1028.02 387.304 1027.97 387.063 1027.94 386.818" stroke="#262626" stroke-width="0.666667" stroke-miterlimit="8" fill="none" fill-rule="evenodd"/><rect x="980" y="213" width="91" height="32" fill="#86B4E6"/><text font-family="Lato,Lato_MSFontService,sans-serif" font-weight="400" font-size="19" transform="translate(992.373 235)">Training</text><path d="M862.5 513.667C862.5 509.156 866.156 505.5 870.667 505.5L1053.33 505.5C1057.84 505.5 1061.5 509.156 1061.5 513.667L1061.5 546.333C1061.5 550.844 1057.84 554.5 1053.33 554.5L870.667 554.5C866.156 554.5 862.5 550.844 862.5 546.333Z" stroke="#333F50" stroke-width="1.33333" stroke-miterlimit="8" stroke-opacity="0.698039" fill="#D9D9D9" fill-rule="evenodd"/><text font-family="Calibri,Calibri_MSFontService,sans-serif" font-weight="400" font-size="24" transform="translate(1005.25 537)">+</text><path d="M1027.94 526.818C1027.62 524.257 1029.24 521.898 1031.55 521.55 1032.49 521.409 1033.44 521.62 1034.25 522.149 1035.12 520.344 1037.13 519.658 1038.76 520.617 1039.04 520.785 1039.31 520.997 1039.54 521.248 1040.21 519.752 1041.85 519.144 1043.19 519.89 1043.57 520.097 1043.89 520.395 1044.15 520.763 1045.23 519.349 1047.15 519.174 1048.42 520.373 1048.96 520.877 1049.32 521.572 1049.45 522.34 1051.22 522.877 1052.27 524.913 1051.79 526.887 1051.75 527.052 1051.7 527.215 1051.64 527.373 1053.06 529.43 1052.71 532.377 1050.86 533.957 1050.28 534.449 1049.6 534.767 1048.88 534.881 1048.86 537.094 1047.23 538.873 1045.23 538.855 1044.57 538.849 1043.91 538.639 1043.35 538.248 1042.67 540.728 1040.32 542.13 1038.09 541.379 1037.15 541.064 1036.34 540.399 1035.8 539.496 1033.52 541.023 1030.55 540.202 1029.18 537.66 1029.16 537.628 1029.14 537.596 1029.13 537.563 1027.63 537.758 1026.28 536.575 1026.1 534.922 1026.01 534.04 1026.27 533.158 1026.82 532.511 1025.53 531.666 1025.09 529.811 1025.85 528.368 1026.29 527.536 1027.05 526.986 1027.91 526.887Z" stroke="#262626" stroke-width="0.666667" stroke-miterlimit="8" fill="#FFD966" fill-rule="evenodd"/><path d="M1028.43 532.831C1027.88 532.879 1027.33 532.737 1026.85 532.425M1029.83 537.273C1029.61 537.371 1029.37 537.436 1029.14 537.467M1035.8 539.407C1035.63 539.129 1035.49 538.832 1035.38 538.521M1043.52 537.197C1043.49 537.527 1043.44 537.853 1043.35 538.17M1046.83 531.19C1048.08 531.866 1048.87 533.279 1048.86 534.823M1051.62 527.319C1051.42 527.845 1051.11 528.311 1050.72 528.682M1049.45 522.263C1049.49 522.476 1049.5 522.691 1049.5 522.907M1043.67 521.513C1043.79 521.216 1043.95 520.939 1044.14 520.692M1039.34 521.904C1039.39 521.658 1039.46 521.421 1039.56 521.196M1034.25 522.144C1034.54 522.336 1034.82 522.566 1035.06 522.831M1028.08 527.541C1028.02 527.304 1027.97 527.063 1027.94 526.818" stroke="#262626" stroke-width="0.666667" stroke-miterlimit="8" fill="none" fill-rule="evenodd"/><path d="M872.359 515.448 884.574 515.448 884.574 544.248 872.359 544.248Z" fill="#767171" fill-rule="evenodd"/><path d="M884.574 515.448 896.789 515.448 896.789 544.248 884.574 544.248Z" fill="#3B3838" fill-rule="evenodd"/><path d="M896.789 515.448 909.004 515.448 909.004 544.248 896.789 544.248Z" fill="#FFFFFF" fill-rule="evenodd"/><path d="M909.004 515.448 921.219 515.448 921.219 544.248 909.004 544.248Z" fill="#AFABAB" fill-rule="evenodd"/><path d="M921.219 515.448 933.434 515.448 933.434 544.248 921.219 544.248Z" fill="#FFFFFF" fill-rule="evenodd"/><path d="M933.434 515.448 945.649 515.448 945.649 544.248 933.434 544.248Z" fill="#FFFFFF" fill-rule="evenodd"/><path d="M945.649 515.448 957.864 515.448 957.864 544.248 945.649 544.248Z" fill="#C9C9C9" fill-rule="evenodd"/><path d="M957.864 515.448 970.079 515.448 970.079 544.248 957.864 544.248Z" fill="#F2F2F2" fill-rule="evenodd"/><path d="M970.079 515.448 982.294 515.448 982.294 544.248 970.079 544.248Z" fill="#AFABAB" fill-rule="evenodd"/><path d="M982.294 515.448 994.509 515.448 994.509 544.248 982.294 544.248Z" fill="#767171" fill-rule="evenodd"/><path d="M884.574 514.781 884.574 544.915" stroke="#000000" stroke-width="1.33333" stroke-linejoin="round" stroke-miterlimit="10" fill="none" fill-rule="evenodd"/><path d="M896.789 514.781 896.789 544.915" stroke="#000000" stroke-width="1.33333" stroke-linejoin="round" stroke-miterlimit="10" fill="none" fill-rule="evenodd"/><path d="M909.004 514.781 909.004 544.915" stroke="#000000" stroke-width="1.33333" stroke-linejoin="round" stroke-miterlimit="10" fill="none" fill-rule="evenodd"/><path d="M921.219 514.781 921.219 544.915" stroke="#000000" stroke-width="1.33333" stroke-linejoin="round" stroke-miterlimit="10" fill="none" fill-rule="evenodd"/><path d="M933.434 514.781 933.434 544.915" stroke="#000000" stroke-width="1.33333" stroke-linejoin="round" stroke-miterlimit="10" fill="none" fill-rule="evenodd"/><path d="M945.649 514.781 945.649 544.915" stroke="#000000" stroke-width="1.33333" stroke-linejoin="round" stroke-miterlimit="10" fill="none" fill-rule="evenodd"/><path d="M957.864 514.781 957.864 544.915" stroke="#000000" stroke-width="1.33333" stroke-linejoin="round" stroke-miterlimit="10" fill="none" fill-rule="evenodd"/><path d="M970.079 514.781 970.079 544.915" stroke="#000000" stroke-width="1.33333" stroke-linejoin="round" stroke-miterlimit="10" fill="none" fill-rule="evenodd"/><path d="M982.294 514.781 982.294 544.915" stroke="#000000" stroke-width="1.33333" stroke-linejoin="round" stroke-miterlimit="10" fill="none" fill-rule="evenodd"/><path d="M872.359 514.781 872.359 544.915" stroke="#000000" stroke-width="1.33333" stroke-linejoin="round" stroke-miterlimit="10" fill="none" fill-rule="evenodd"/><path d="M994.509 514.781 994.509 544.915" stroke="#000000" stroke-width="1.33333" stroke-linejoin="round" stroke-miterlimit="10" fill="none" fill-rule="evenodd"/><path d="M871.693 515.448 995.175 515.448" stroke="#000000" stroke-width="1.33333" stroke-linejoin="round" stroke-miterlimit="10" fill="none" fill-rule="evenodd"/><path d="M871.693 544.248 995.175 544.248" stroke="#000000" stroke-width="1.33333" stroke-linejoin="round" stroke-miterlimit="10" fill="none" fill-rule="evenodd"/><path d="M851.5 491.667C851.5 482.186 859.186 474.5 868.667 474.5L1183.33 474.5C1192.81 474.5 1200.5 482.186 1200.5 491.667L1200.5 560.333C1200.5 569.814 1192.81 577.5 1183.33 577.5L868.667 577.5C859.186 577.5 851.5 569.814 851.5 560.333Z" stroke="#333F50" stroke-width="1.33333" stroke-miterlimit="8" stroke-opacity="0.698039" fill="none" fill-rule="evenodd"/><rect x="969" y="457" width="113" height="33" fill="#86B4E6"/><text font-family="Lato,Lato_MSFontService,sans-serif" font-weight="400" font-size="19" transform="translate(984.207 480)">Validation</text><path d="M1067 318 1096.02 318 1096.02 322 1067 322ZM1094.02 314 1106.02 320 1094.02 326Z" fill="#333F50"/><path d="M1112.5 311.167C1112.5 308.589 1114.59 306.5 1117.17 306.5L1184.83 306.5C1187.41 306.5 1189.5 308.589 1189.5 311.167L1189.5 329.833C1189.5 332.411 1187.41 334.5 1184.83 334.5L1117.17 334.5C1114.59 334.5 1112.5 332.411 1112.5 329.833Z" stroke="#333F50" stroke-width="1.33333" stroke-miterlimit="8" stroke-opacity="0.698039" fill="#D9D9D9" fill-rule="evenodd"/><path d="M1112.5 381.167C1112.5 378.589 1114.59 376.5 1117.17 376.5L1184.83 376.5C1187.41 376.5 1189.5 378.589 1189.5 381.167L1189.5 399.833C1189.5 402.411 1187.41 404.5 1184.83 404.5L1117.17 404.5C1114.59 404.5 1112.5 402.411 1112.5 399.833Z" stroke="#333F50" stroke-width="1.33333" stroke-miterlimit="8" stroke-opacity="0.698039" fill="#D9D9D9" fill-rule="evenodd"/><path d="M1112.5 521.167C1112.5 518.589 1114.59 516.5 1117.17 516.5L1184.83 516.5C1187.41 516.5 1189.5 518.589 1189.5 521.167L1189.5 539.833C1189.5 542.411 1187.41 544.5 1184.83 544.5L1117.17 544.5C1114.59 544.5 1112.5 542.411 1112.5 539.833Z" stroke="#333F50" stroke-width="1.33333" stroke-miterlimit="8" stroke-opacity="0.698039" fill="#D9D9D9" fill-rule="evenodd"/><text font-family="Cambria,Cambria_MSFontService,sans-serif" font-weight="400" font-size="14" transform="translate(1122.02 325)">1.05</text><text font-family="Cambria,Cambria_MSFontService,sans-serif" font-weight="400" font-size="14" transform="translate(1148.35 325)">-</text><text font-family="Cambria,Cambria_MSFontService,sans-serif" font-weight="400" font-size="14" transform="translate(1153.02 325)">1.75</text><text font-family="Cambria,Cambria_MSFontService,sans-serif" font-weight="400" font-size="14" transform="translate(1137.52 395)">0.55</text><text font-family="Cambria,Cambria_MSFontService,sans-serif" font-weight="400" font-size="14" transform="translate(1122.02 535)">2.90</text><text font-family="Cambria,Cambria_MSFontService,sans-serif" font-weight="400" font-size="14" transform="translate(1148.35 535)">-</text><text font-family="Cambria,Cambria_MSFontService,sans-serif" font-weight="400" font-size="14" transform="translate(1153.02 535)">3.40</text><path d="M1067 388 1096.02 388 1096.02 392 1067 392ZM1094.02 384 1106.02 390 1094.02 396Z" fill="#333F50"/><path d="M1067 528 1096.02 528 1096.02 532 1067 532ZM1094.02 524 1106.02 530 1094.02 536Z" fill="#333F50"/><path d="M463.5 76.6671C463.5 71.052 468.052 66.5001 473.667 66.5001L807.333 66.5001C812.948 66.5001 817.5 71.052 817.5 76.6671L817.5 117.333C817.5 122.948 812.948 127.5 807.333 127.5L473.667 127.5C468.052 127.5 463.5 122.948 463.5 117.333Z" stroke="#000000" stroke-width="3" stroke-linejoin="round" stroke-miterlimit="10" fill="#FFFFFF" fill-rule="evenodd"/><text font-family="Lato,Lato_MSFontService,sans-serif" font-weight="400" font-size="37" transform="translate(502.167 111)">Known structure</text><text fill="#262626" font-family="Aptos,Aptos_MSFontService,sans-serif" font-weight="400" font-size="13" transform="translate(1116.5 283)">logIE value</text><path d="M873.5 303.5C873.5 297.701 878.798 293 885.334 293L922.863 293C929.399 293 934.697 288.299 934.697 282.5 934.697 288.299 939.995 293 946.531 293L982.666 293C989.202 293 994.5 297.701 994.5 303.5" stroke="#3B3838" stroke-width="1.33333" stroke-miterlimit="8" fill="none" fill-rule="evenodd"/><text fill="#262626" font-family="Aptos,Aptos_MSFontService,sans-serif" font-weight="400" font-size="13" transform="translate(898.984 273)">Fingerprints</text><text fill="#262626" font-family="Aptos,Aptos_MSFontService,sans-serif" font-weight="400" font-size="13" transform="translate(1030.29 275)">pH</text><path d="M0.666667-1.97642e-06 0.666678 4-0.666655 4-0.666667 1.97642e-06ZM0.666682 5.33333 0.666694 9.33333-0.666639 9.33333-0.666651 5.33334ZM0.666698 10.6667 0.66671 14.6667-0.666623 14.6667-0.666635 10.6667ZM0.666714 16 0.666726 20-0.666607 20-0.666619 16ZM0.66673 21.3333 0.666742 25.3333-0.666592 25.3333-0.666603 21.3333ZM0.666746 26.6667 0.666758 30.6667-0.666576 30.6667-0.666588 26.6667ZM0.666762 32 0.666764 32.7466-0.66657 32.7466-0.666572 32ZM9.70812e-05 32.7466 2.66676 30.0799 0.000104987 35.4132-2.66658 30.0799Z" fill="#3B3838" transform="matrix(1 0 0 -1 1039.5 319.913)"/><path d="M1027.94 316.151C1027.62 313.473 1029.24 311.007 1031.55 310.643 1032.49 310.496 1033.44 310.716 1034.25 311.27 1035.12 309.383 1037.13 308.665 1038.76 309.668 1039.04 309.843 1039.31 310.065 1039.54 310.327 1040.21 308.763 1041.85 308.128 1043.19 308.908 1043.57 309.124 1043.89 309.436 1044.15 309.821 1045.23 308.342 1047.15 308.159 1048.42 309.413 1048.96 309.94 1049.32 310.667 1049.45 311.469 1051.22 312.031 1052.27 314.159 1051.79 316.222 1051.75 316.396 1051.7 316.566 1051.64 316.731 1053.06 318.881 1052.71 321.963 1050.86 323.614 1050.28 324.128 1049.6 324.461 1048.88 324.58 1048.86 326.894 1047.23 328.754 1045.23 328.735 1044.57 328.729 1043.91 328.509 1043.35 328.1 1042.67 330.693 1040.32 332.159 1038.09 331.374 1037.15 331.045 1036.34 330.349 1035.8 329.405 1033.52 331.002 1030.55 330.143 1029.18 327.486 1029.16 327.452 1029.14 327.418 1029.13 327.385 1027.63 327.587 1026.28 326.351 1026.1 324.623 1026.01 323.701 1026.27 322.779 1026.82 322.102 1025.53 321.219 1025.09 319.28 1025.85 317.771 1026.29 316.901 1027.05 316.326 1027.91 316.222Z" stroke="#262626" stroke-width="0.666667" stroke-miterlimit="8" fill="#DE0000" fill-rule="evenodd"/><path d="M1028.43 322.437C1027.88 322.487 1027.33 322.339 1026.85 322.013M1029.83 327.081C1029.61 327.183 1029.37 327.251 1029.14 327.284M1035.8 329.312C1035.63 329.021 1035.49 328.711 1035.38 328.385M1043.52 327.002C1043.49 327.346 1043.44 327.687 1043.35 328.018M1046.83 320.721C1048.08 321.428 1048.87 322.906 1048.86 324.52M1051.62 316.675C1051.42 317.224 1051.11 317.712 1050.72 318.099M1049.45 311.389C1049.49 311.611 1049.5 311.836 1049.5 312.062M1043.67 310.604C1043.79 310.294 1043.95 310.005 1044.14 309.746M1039.34 311.013C1039.39 310.757 1039.46 310.508 1039.56 310.273M1034.25 311.264C1034.54 311.465 1034.82 311.706 1035.06 311.982M1028.08 316.906C1028.02 316.659 1027.97 316.407 1027.94 316.151" stroke="#262626" stroke-width="0.666667" stroke-miterlimit="8" fill="none" fill-rule="evenodd"/><text fill="#262626" font-family="Aptos,Aptos_MSFontService,sans-serif" font-weight="400" font-size="13" transform="translate(577.348 384)">Fingerprint</text><text fill="#262626" font-family="Aptos,Aptos_MSFontService,sans-serif" font-weight="400" font-size="13" transform="translate(560.181 400)">calculation tools</text><text fill="#262626" font-family="Aptos,Aptos_MSFontService,sans-serif" font-weight="400" font-size="13" transform="translate(698.516 363)">Molecular</text><text fill="#262626" font-family="Aptos,Aptos_MSFontService,sans-serif" font-weight="400" font-size="13" transform="translate(697.85 379)">fingerprint</text><text fill="#262626" font-family="Aptos,Aptos_MSFontService,sans-serif" font-weight="400" font-size="13" transform="translate(698.516 496)">Molecular</text><text fill="#262626" font-family="Aptos,Aptos_MSFontService,sans-serif" font-weight="400" font-size="13" transform="translate(697.85 512)">fingerprint</text><text fill="#262626" font-family="Aptos,Aptos_MSFontService,sans-serif" font-weight="400" font-size="13" transform="translate(577.348 513)">Fingerprint</text><text fill="#262626" font-family="Aptos,Aptos_MSFontService,sans-serif" font-weight="400" font-size="13" transform="translate(560.181 529)">calculation tools</text><text fill="#262626" font-family="Aptos,Aptos_MSFontService,sans-serif" font-weight="400" font-size="15" transform="translate(87.9988 452)">Ionization efficiency</text><text fill="#262626" font-family="Aptos,Aptos_MSFontService,sans-serif" font-weight="400" font-size="15" transform="translate(129.912 469)">Library</text></g></svg>